<?xml version="1.0" encoding="UTF-8" standalone="no"?>
<!-- Created with Inkscape (http://www.inkscape.org/) -->

<svg
   width="1280"
   height="400"
   viewBox="0 0 338.66659 105.83333"
   version="1.1"
   id="svg1"
   xml:space="preserve"
   inkscape:version="1.4.2 (f4327f4, 2025-05-13)"
   sodipodi:docname="readme_logo.svg"
   xmlns:inkscape="http://www.inkscape.org/namespaces/inkscape"
   xmlns:sodipodi="http://sodipodi.sourceforge.net/DTD/sodipodi-0.dtd"
   xmlns="http://www.w3.org/2000/svg"
   xmlns:svg="http://www.w3.org/2000/svg"><sodipodi:namedview
     id="namedview1"
     pagecolor="#ffffff"
     bordercolor="#999999"
     borderopacity="1"
     inkscape:showpageshadow="2"
     inkscape:pageopacity="0"
     inkscape:pagecheckerboard="true"
     inkscape:deskcolor="#d1d1d1"
     inkscape:document-units="px"
     showgrid="true"
     showborder="true"
     inkscape:zoom="1.7241252"
     inkscape:cx="435.87322"
     inkscape:cy="200.68148"
     inkscape:window-width="3840"
     inkscape:window-height="2036"
     inkscape:window-x="3348"
     inkscape:window-y="-12"
     inkscape:window-maximized="1"
     inkscape:current-layer="layer1" /><defs
     id="defs1" /><g
     inkscape:label="main"
     inkscape:groupmode="layer"
     id="layer1"
     transform="translate(-22.964951,-39.100507)"><path
       fill-rule="evenodd"
       clip-rule="evenodd"
       d="m 299.4757,52.193778 -1.80513,-0.425828 -4.87851,4.85074 -2.76326,-2.814171 4.75816,-4.99191 -0.41657,-1.832913 a 10.229135,10.229135 0 0 0 -3.11733,-0.527656 8.4239933,8.4239933 0 0 0 -3.37191,0.648 8.8498217,8.8498217 0 0 0 -2.74475,1.943998 8.6461647,8.6461647 0 0 0 -2.025,2.92757 9.1136505,9.1136505 0 0 0 0,6.864164 776.07435,776.07435 0 0 0 -14.28606,14.427249 c -0.486,0.636424 -0.71744,1.430226 -0.65727,2.228653 a 3.2469403,3.2469403 0 0 0 1.07383,2.237913 c 0.28697,0.31243 0.62949,0.57163 1.01135,0.759086 0.39344,0.173569 0.81694,0.273087 1.24509,0.293915 0.73131,-0.01379 1.43253,-0.291599 1.9764,-0.779915 3.5825,-3.371911 10.44667,-10.298563 14.34624,-14.357818 1.05761,0.44897 2.19394,0.6804 3.34182,0.678087 a 8.6461647,8.6461647 0 0 0 6.19534,-2.622086 8.9909933,8.9909933 0 0 0 2.57116,-6.317994 9.7454499,9.7454499 0 0 0 -0.4536,-3.189084 z m -27.40112,24.168067 a 0.71742799,0.71742799 0 0 1 -0.31243,0.162006 1.011342,1.011342 0 0 1 -0.34482,0 0.80074224,0.80074224 0 0 1 -0.33327,-0.131921 0.7775994,0.7775994 0 0 1 -0.26382,-0.254572 c -0.324,-0.330944 -0.62715,-0.960426 -0.324,-1.314512 3.17058,-3.371911 9.69916,-9.962994 13.78157,-13.992161 0.23143,0.305484 0.486,0.597084 0.75907,0.870171 0.27309,0.284654 0.56701,0.548485 0.87944,0.789169 -3.94817,4.049997 -10.38651,10.562393 -13.83941,13.871819 z m 25.73023,-20.978983 c 0.006,1.770427 -0.68504,3.471426 -1.92548,4.739652 a 6.6211661,6.6211661 0 0 1 -9.27335,0 6.9243376,6.9243376 0 0 1 -1.46958,-7.259906 6.3596521,6.3596521 0 0 1 3.61723,-3.68897 6.387424,6.387424 0 0 1 2.48091,-0.495258 h 0.58783 l -4.20504,4.334656 v 1.610741 l 4.38556,4.364739 h 1.52743 l 4.27449,-4.202739 z m -25.01974,4.223569 h 3.54317 l 1.63156,1.659341 1.56909,-1.559828 -1.53899,-1.569084 v -0.09951 l 0.13192,-3.816253 -0.50914,-1.011343 -6.61885,-4.355483 -1.36774,0.152743 -1.92317,1.964827 -0.15275,1.386257 4.25366,6.753078 0.98126,0.497574 z m -2.18699,-8.405481 5.35525,3.526969 -0.0903,2.598941 h -2.49016 l -3.45292,-5.466338 z m 16.44298,16.107416 1.55982,-1.557515 7.18818,7.370997 a 3.422826,3.422826 0 0 1 0,4.718825 3.2492548,3.2492548 0 0 1 -3.58483,0.728998 3.0317121,3.0317121 0 0 1 -1.01133,-0.728998 l -7.27149,-7.41265 1.5714,-1.569085 7.24834,7.391822 a 0.93034223,0.93034223 0 0 0 0.35407,0.242999 1.1039135,1.1039135 0 0 0 0.83084,0 0.93265636,0.93265636 0 0 0 0.35409,-0.242999 1.0090278,1.0090278 0 0 0 0.23142,-0.354085 1.2149991,1.2149991 0 0 0 0.0833,-0.425829 1.2659134,1.2659134 0 0 0 -0.081,-0.425828 1.0090278,1.0090278 0 0 0 -0.23142,-0.354087 z"
       id="tools-icon"
       style="fill:#932f4b;fill-opacity:1;stroke-width:2.3143"
       inkscape:label="tools-icon" /><path
       d="M 169.9795,72.753059 182.11889,60.613674 169.9795,48.474292 m 16.18586,28.325225 h 16.18584"
       stroke="#000000"
       stroke-width="4.0465"
       stroke-linecap="round"
       stroke-linejoin="round"
       id="terminal-icon"
       style="fill:none;stroke:#ea5e20;stroke-opacity:1"
       inkscape:label="terminal-icon" /><path
       d="m 99.832776,72.00786 c 1.424474,1.070359 3.195314,1.704644 5.114294,1.704644 1.91745,0 3.68701,-0.633276 5.1109,-1.702088 l 6.4e-4,5.532018 c 0,0.972719 -1.03016,1.566867 -1.85766,1.139882 l -0.15249,-0.09219 -3.10215,-2.168153 -3.10094,2.168153 c -0.79738,0.557133 -1.874437,0.05298 -1.998389,-0.86991 l -0.01223,-0.1778 z m 7.243384,-25.556782 c 2.49238,0 4.53031,1.945636 4.67785,4.40093 l 0.009,0.285481 0.002,8.939731 c -0.68907,-0.917196 -1.55884,-1.690842 -2.5565,-2.26804 l -0.002,-6.671691 c 0,-1.102941 -0.83824,-2.010101 -1.91239,-2.119189 l -0.2175,-0.01101 H 82.366129 c -1.102934,0 -2.010085,0.83823 -2.119184,1.912389 l -0.01101,0.217796 v 16.189431 c 0,1.102942 0.83823,2.010105 1.912401,2.119189 l 0.217794,0.01101 15.202552,1.01e-4 c 0.170115,0.293554 0.357249,0.576028 0.560044,0.84606 l 9.42e-4,1.709989 H 82.366191 c -2.492364,0 -4.530308,-1.945641 -4.67785,-4.400927 l -0.0086,-0.285482 V 51.137471 c 0,-2.492376 1.945631,-4.530323 4.400923,-4.677862 l 0.285491,-0.0086 z m -2.12909,11.921885 c 3.76531,0 6.81768,3.052389 6.81768,6.817694 0,3.765313 -3.05237,6.817696 -6.81768,6.817696 -3.7653,0 -6.817697,-3.052383 -6.817697,-6.817696 0,-3.765305 3.052407,-6.817694 6.817697,-6.817694 z m -11.504098,4.26038 c 0.705885,0 1.278115,0.572227 1.278115,1.27811 0,0.647058 -0.480835,1.181813 -1.104685,1.266444 l -0.17343,0.01162 h -7.668678 c -0.705885,0 -1.278116,-0.572224 -1.278116,-1.27811 0,-0.647061 0.480835,-1.181817 1.104685,-1.266443 l 0.173418,-0.01162 z m 10.224888,-9.372828 c 0.70589,0 1.27812,0.572228 1.27812,1.278113 0,0.647055 -0.48084,1.181811 -1.10468,1.266441 l -0.17345,0.01162 H 85.774294 c -0.705885,0 -1.278116,-0.572229 -1.278116,-1.27811 0,-0.647062 0.480835,-1.181818 1.104685,-1.266448 l 0.173418,-0.01174 z"
       id="certificate-icon"
       style="display:inline;fill:#f6e525;fill-opacity:1;fill-rule:nonzero;stroke:none;stroke-width:1.70415"
       inkscape:label="certificate-icon" /><text
       xml:space="preserve"
       style="font-style:normal;font-variant:normal;font-weight:normal;font-stretch:normal;font-size:51.7947px;font-family:Arial;-inkscape-font-specification:'Arial, Normal';font-variant-ligatures:normal;font-variant-caps:normal;font-variant-numeric:normal;font-variant-east-asian:normal;text-align:start;writing-mode:lr-tb;direction:ltr;text-anchor:start;fill:#f08a5d;fill-opacity:1;fill-rule:nonzero;stroke:#ea5e20;stroke-width:3.35306;stroke-dasharray:none;stroke-opacity:1"
       x="229.58188"
       y="126.4482"
       id="text8"
       inkscape:label="logo-text-3"><tspan
         sodipodi:role="line"
         id="tspan5"
         style="font-style:normal;font-variant:normal;font-weight:normal;font-stretch:normal;font-size:51.7947px;font-family:Arial;-inkscape-font-specification:'Arial, Normal';font-variant-ligatures:normal;font-variant-caps:normal;font-variant-numeric:normal;font-variant-east-asian:normal;fill:#f08a5d;fill-opacity:1;fill-rule:nonzero;stroke:none;stroke-width:3.35306;stroke-dasharray:none"
         x="229.58188"
         y="126.4482"><tspan
           style="font-style:normal;font-variant:normal;font-weight:normal;font-stretch:normal;font-size:51.7947px;font-family:Arial;-inkscape-font-specification:'Arial, Normal';font-variant-ligatures:normal;font-variant-caps:normal;font-variant-numeric:normal;font-variant-east-asian:normal;fill:#b83b5e;fill-opacity:1;fill-rule:nonzero;stroke:#b83b5e;stroke-width:3.35306;stroke-dasharray:none;stroke-opacity:1"
           id="tspan8">tools</tspan></tspan></text><text
       xml:space="preserve"
       style="font-style:normal;font-variant:normal;font-weight:normal;font-stretch:normal;font-size:51.7947px;font-family:Arial;-inkscape-font-specification:'Arial, Normal';font-variant-ligatures:normal;font-variant-caps:normal;font-variant-numeric:normal;font-variant-east-asian:normal;text-align:start;writing-mode:lr-tb;direction:ltr;text-anchor:start;fill:#f08a5d;fill-opacity:1;fill-rule:nonzero;stroke:#ea5e20;stroke-width:3.35306;stroke-dasharray:none;stroke-opacity:1"
       x="162.45563"
       y="126.4482"
       id="text12"
       inkscape:label="logo-text-2"><tspan
         sodipodi:role="line"
         id="tspan12"
         style="font-style:normal;font-variant:normal;font-weight:normal;font-stretch:normal;font-size:51.7947px;font-family:Arial;-inkscape-font-specification:'Arial, Normal';font-variant-ligatures:normal;font-variant-caps:normal;font-variant-numeric:normal;font-variant-east-asian:normal;fill:#f08a5d;fill-opacity:1;fill-rule:nonzero;stroke:none;stroke-width:3.35306;stroke-dasharray:none"
         x="162.45563"
         y="126.4482"><tspan
           style="font-style:normal;font-variant:normal;font-weight:normal;font-stretch:normal;font-size:51.7947px;font-family:Arial;-inkscape-font-specification:'Arial, Normal';font-variant-ligatures:normal;font-variant-caps:normal;font-variant-numeric:normal;font-variant-east-asian:normal;fill:#f08a5d;fill-opacity:1;fill-rule:nonzero;stroke:#f08a5d;stroke-width:3.35306;stroke-dasharray:none;stroke-opacity:1"
           id="tspan10">cli</tspan></tspan></text><text
       xml:space="preserve"
       style="font-style:normal;font-variant:normal;font-weight:normal;font-stretch:normal;font-size:51.7947px;font-family:Arial;-inkscape-font-specification:'Arial, Normal';font-variant-ligatures:normal;font-variant-caps:normal;font-variant-numeric:normal;font-variant-east-asian:normal;text-align:start;writing-mode:lr-tb;direction:ltr;text-anchor:start;fill:#f08a5d;fill-opacity:1;fill-rule:nonzero;stroke:#ea5e20;stroke-width:3.35306;stroke-dasharray:none;stroke-opacity:1"
       x="46.013115"
       y="125.61361"
       id="text16"
       inkscape:label="logo-text-1"><tspan
         sodipodi:role="line"
         id="tspan16"
         style="font-style:normal;font-variant:normal;font-weight:normal;font-stretch:normal;font-size:51.7947px;font-family:Arial;-inkscape-font-specification:'Arial, Normal';font-variant-ligatures:normal;font-variant-caps:normal;font-variant-numeric:normal;font-variant-east-asian:normal;fill:#f08a5d;fill-opacity:1;fill-rule:nonzero;stroke:none;stroke-width:3.35306;stroke-dasharray:none"
         x="46.013115"
         y="125.61361"><tspan
           style="font-style:normal;font-variant:normal;font-weight:normal;font-stretch:normal;font-size:51.7947px;font-family:Arial;-inkscape-font-specification:'Arial, Normal';font-variant-ligatures:normal;font-variant-caps:normal;font-variant-numeric:normal;font-variant-east-asian:normal;fill:#f9ed69;fill-opacity:1;fill-rule:nonzero;stroke:#f9ed69;stroke-width:3.35306;stroke-dasharray:none;stroke-opacity:1"
           id="tspan13">step</tspan><tspan
           style="font-style:normal;font-variant:normal;font-weight:normal;font-stretch:normal;font-size:51.7947px;font-family:Arial;-inkscape-font-specification:'Arial, Normal';font-variant-ligatures:normal;font-variant-caps:normal;font-variant-numeric:normal;font-variant-east-asian:normal;fill:#b83b5e;fill-opacity:1;fill-rule:nonzero;stroke:#b83b5e;stroke-width:3.35306;stroke-dasharray:none;stroke-opacity:1"
           id="tspan15" /></tspan></text></g></svg>
